<svg width="78" height="77" viewBox="0 0 78 77" fill="none" xmlns="http://www.w3.org/2000/svg">
<path d="M0.326904 32.0817V51.903V51.9023C0.330186 55.8777 1.80502 59.7102 4.46457 62.6572C7.12478 65.6048 10.78 67.4563 14.7235 67.8539V68.326C14.7235 70.579 15.6155 72.7392 17.2039 74.3325C18.7923 75.9258 20.9464 76.8206 23.1926 76.8206H54.8086C57.0546 76.8206 59.2089 75.9259 60.7972 74.3325C62.3856 72.7392 63.2776 70.579 63.2776 68.326V67.8539C67.2211 67.4562 70.8763 65.6048 73.5365 62.6572C76.1961 59.7103 77.6708 55.8777 77.6742 51.9023V32.081L67.418 32.0817V14.4313C67.418 9.33927 64.7099 4.63441 60.3136 2.08849C55.9174 -0.457434 50.5012 -0.457434 46.1054 2.08849C41.7092 4.63441 39.0011 9.33944 39.0011 14.4313V18.1124H44.6471V14.4313C44.6471 11.3625 46.2788 8.52754 48.9279 6.99274C51.5777 5.45868 54.8417 5.45868 57.4908 6.99274C60.1406 8.52746 61.7721 11.3625 61.7721 14.4313V32.0817H0.326904ZM54.808 71.1579H23.192C22.4432 71.1579 21.7251 70.859 21.1954 70.3284C20.6664 69.7971 20.369 69.0768 20.369 68.3262V67.9489L57.6307 67.9483V68.3262C57.6307 69.0767 57.3334 69.797 56.8044 70.3284C56.2747 70.859 55.5566 71.1579 54.8077 71.1579L54.808 71.1579ZM72.0275 51.903C72.0275 54.6564 70.9373 57.2979 68.9964 59.2448C67.0549 61.1917 64.4222 62.2859 61.6773 62.2859H16.3234C13.5785 62.2859 10.9459 61.1916 9.00434 59.2448C7.06345 57.2979 5.97329 54.6564 5.97329 51.903V37.7449H72.0282L72.0275 51.903Z" fill="#3587E6"/>
</svg>
