<svg width="20" height="18" viewBox="0 0 20 18" fill="none" xmlns="http://www.w3.org/2000/svg">
<path fill-rule="evenodd" clip-rule="evenodd" d="M4.65826 1.80229C4.49842 1.80194 4.34434 1.82003 4.19792 1.85443C3.99721 1.41204 3.73208 1.01515 3.43054 0.713604C2.91873 0.201799 2.11154 0 0.994141 0V1.8C1.67674 1.8 2.06955 1.8982 2.15774 1.9864C2.49792 2.32657 2.79414 3.01776 2.79414 3.6L2.80319 3.72728L3.68507 9.90046C2.20946 9.97702 1.06632 11.1229 0.995246 12.5554L0.994141 13.5C1.08128 14.9795 2.22062 16.1177 3.64306 16.1985L3.84737 16.1989C4.2177 17.2481 5.21812 18 6.39414 18C7.56974 18 8.56985 17.2487 8.94051 16.2H11.0478C11.4184 17.2487 12.4185 18 13.5941 18C15.0853 18 16.2941 16.7912 16.2941 15.3C16.2941 13.8088 15.0853 12.6 13.5941 12.6C12.4185 12.6 11.4184 13.3513 11.0478 14.4H8.94051C8.56985 13.3513 7.56974 12.6 6.39414 12.6C5.21854 12.6 4.21843 13.3513 3.84778 14.4H3.69414C3.23515 14.3725 2.82342 13.9612 2.79253 13.4461L2.79414 12.6C2.81841 12.1332 3.22732 11.7243 3.73874 11.6989L5.51546 11.6993L5.52834 11.7H14.5993L14.7322 11.6578C15.4145 11.4413 15.9608 10.9275 16.2195 10.2623L16.3143 10.0746L16.6223 9.46429C16.941 8.83253 17.2597 8.19968 17.5703 7.58142C18.331 6.06697 18.8095 5.1045 18.9154 4.86815C19.4595 3.65441 18.3573 2.72022 17.2308 2.70032L4.65826 1.80229ZM14.2872 9.9H5.59632C5.53853 9.88393 5.49449 9.83498 5.48587 9.77401L4.60397 3.60066L17.0988 4.49543C16.8801 4.94129 16.4827 5.73764 15.9624 6.77348L15.9494 6.79944C15.6524 7.39067 15.3341 8.02265 15.0158 8.65357L14.7082 9.26311L14.5915 9.49395L14.5476 9.596C14.5006 9.72698 14.4073 9.83462 14.2872 9.9ZM13.5947 16.2C14.0918 16.2 14.4947 15.7971 14.4947 15.3C14.4947 14.8029 14.0918 14.4 13.5947 14.4C13.0977 14.4 12.6947 14.8029 12.6947 15.3C12.6947 15.7971 13.0977 16.2 13.5947 16.2ZM7.29474 15.3C7.29474 15.7971 6.89179 16.2 6.39474 16.2C5.89768 16.2 5.49474 15.7971 5.49474 15.3C5.49474 14.8029 5.89768 14.4 6.39474 14.4C6.89179 14.4 7.29474 14.8029 7.29474 15.3Z" fill="white"/>
</svg>
