<svg width="94" height="87" viewBox="0 0 94 87" fill="none" xmlns="http://www.w3.org/2000/svg">
<g clip-path="url(#clip0_1552_12)">
<path d="M86.7861 37.996C86.7861 37.5789 86.6201 37.1787 86.3247 36.8838C86.0293 36.5889 85.6283 36.4232 85.2105 36.4232H8.59325C7.72312 36.4232 7.01758 37.1274 7.01758 37.996V78.4959C7.01758 78.913 7.18359 79.3132 7.47902 79.6081C7.77446 79.903 8.17542 80.0688 8.59325 80.0688H85.2105C85.6283 80.0688 86.0293 79.903 86.3247 79.6081C86.6201 79.3132 86.7861 78.913 86.7861 78.4959V37.996ZM38.531 76.7272V59.8193H83.8311V76.7272H38.531ZM83.8311 56.674H38.531V39.5695H83.8311V56.674ZM10.1689 39.5695H35.3797V76.7279H10.1689V39.5695Z" fill="#ADD7FF"/>
<path d="M92.3938 28.8445C92.928 28.8322 93.4434 29.0407 93.8186 29.4207C93.8187 29.4208 93.8189 29.4209 93.819 29.4211L93.4632 29.7723C93.7452 30.0574 93.8944 30.4471 93.8754 30.8466L92.3938 28.8445ZM92.3938 28.8445H79.334M92.3938 28.8445H79.334M64.4147 0.112521C64.0295 0.491438 63.8199 1.01158 63.8321 1.54939L63.832 6.87134L63.8321 6.8772C63.8416 7.68675 64.3077 8.40751 65.0138 8.75789V10.1741C64.3839 10.3938 63.8261 10.7887 63.4088 11.3161C62.9076 11.9497 62.6404 12.7358 62.6503 13.5424V14.5418C61.6477 14.807 60.7483 15.3765 60.0785 16.1762L60.0784 16.1762C59.3185 17.0837 58.9036 18.2306 58.908 19.4143C58.908 19.4147 58.908 19.415 58.908 19.4153L58.908 27.7774V27.7856L58.9083 27.7939C58.92 28.1476 58.9621 28.4991 59.034 28.8446H45.1362V17.9002C45.1362 16.7104 44.0898 15.8688 42.9909 15.8688L16.6979 15.8688L16.6968 15.8688C14.5527 15.8732 12.4881 16.6784 10.9096 18.1272C9.33119 19.576 8.35326 21.5626 8.16869 23.6955L8.16867 23.6957C8.01291 25.5033 8.43669 27.3043 9.36477 28.8447H1.61238C1.07595 28.8301 0.556496 29.039 0.179336 29.4211C-0.197178 29.8026 -0.398181 30.323 -0.376316 30.8576V85.4465C-0.397405 85.981 -0.195183 86.5001 0.181614 86.88L0.18205 86.8804C0.559975 87.2605 1.07861 87.4669 1.61423 87.4499H92.3848C92.9205 87.4669 93.4391 87.2605 93.817 86.8804L93.8175 86.88C94.1942 86.5001 94.3964 85.981 94.3754 85.4466V30.8576L64.7654 0.468998M64.4147 0.112521L64.7654 0.468998M64.4147 0.112521C64.4146 0.112664 64.4145 0.112809 64.4143 0.112953L64.7654 0.468998M64.4147 0.112521C64.7976 -0.264767 65.3192 -0.468061 65.8565 -0.449483M64.7654 0.468998C65.0523 0.186034 65.4442 0.034367 65.8472 0.0505166M65.8565 -0.449483H65.8472V0.0505166M65.8565 -0.449483H72.5444M65.8565 -0.449483C65.8601 -0.44936 65.8637 -0.449226 65.8672 -0.449083L65.8472 0.0505166M65.8472 0.0505166L72.5444 -0.449483M72.5444 -0.449483C72.5416 -0.449411 72.5389 -0.449333 72.5362 -0.44925L72.5515 0.0505166V-0.449483H72.5444ZM72.5444 -0.449483C73.0771 -0.463638 73.5892 -0.268595 73.9753 0.0846299M72.5444 -0.449483L73.8373 0.675443M73.9753 0.0846299C73.8616 0.124619 73.7492 0.168665 73.6384 0.216711L73.8373 0.675443M73.9753 0.0846299C74.0719 0.173036 74.1606 0.271351 74.2398 0.378774L73.8373 0.675443M73.9753 0.0846299C74.3015 -0.0301269 74.6387 -0.111481 74.9812 -0.158129M73.8373 0.675443C74.3572 0.450041 74.915 0.32225 75.4812 0.299078H74.9812V0.298376V-0.158129M74.9812 -0.158129C75.1401 -0.179761 75.3001 -0.19393 75.4608 -0.200504L75.4812 0.298376L79.2066 0.237289M74.9812 -0.158129V-0.193493L75.473 -0.201557L79.1978 -0.262632L79.2066 0.237289M79.2066 0.237289L79.1985 -0.262644L79.1981 -0.262637M79.2066 0.237289C80.0768 0.221848 80.795 0.91348 80.8104 1.78204C80.8259 2.6506 80.1338 3.3675 79.2636 3.38295H79.7636V3.38365V3.81547M79.1981 -0.262637L79.2312 29.3445C79.2727 29.1793 79.307 29.0125 79.334 28.8445M79.1981 -0.262637C80.3432 -0.282802 81.29 0.627644 81.3104 1.77313C81.3278 2.74879 80.6679 3.57863 79.7636 3.81547M79.1981 -0.262637L79.407 19.4133M79.7636 3.81547C79.6065 3.85661 79.4421 3.87986 79.2725 3.88287L79.2636 3.38365L75.546 3.44474M79.7636 3.81547V3.8755L79.2718 3.88359L75.5554 3.94465L75.546 3.44474M75.546 3.44474C75.1745 3.45175 74.8221 3.60553 74.5654 3.87305C74.3086 4.14058 74.1694 4.49868 74.1778 4.86872C74.1799 4.97193 74.1799 5.07305 74.1799 5.17135V6.87196C74.1609 7.65417 73.5778 8.30858 72.8012 8.41812M75.546 3.44474L75.5542 3.94467L75.5549 3.94466C75.316 3.9493 75.0904 4.04811 74.9261 4.21926C74.7614 4.3909 74.6723 4.62033 74.6777 4.85731L74.6777 4.85852C74.6799 4.96691 74.6799 5.07235 74.6799 5.16937V5.17135V6.87196V6.8841L74.6798 6.88409C74.6585 7.76069 74.0979 8.51421 73.3012 8.80563M72.8012 8.41812V10.5498M72.8012 8.41812L72.871 8.91322C73.0204 8.89216 73.1643 8.85572 73.3012 8.80563M72.8012 8.41812H73.3012V8.80563M72.8012 10.5498C73.4786 10.7022 74.0835 11.0813 74.514 11.6255M72.8012 10.5498H73.3012V10.1736M72.8012 10.5498L72.9109 10.062C73.0436 10.0918 73.1739 10.1291 73.3012 10.1736M74.514 11.6255C74.9445 12.1697 75.1739 12.8452 75.1647 13.5383M74.514 11.6255L74.9062 11.3153C75.4073 11.9488 75.6745 12.7348 75.6647 13.5412M74.514 11.6255L74.9062 11.3153C74.4887 10.7876 73.9308 10.3934 73.3012 10.1736M75.1647 13.5383V14.9426M75.1647 13.5383L75.6647 13.5448C75.6647 13.5436 75.6647 13.5424 75.6647 13.5412M75.1647 13.5383H75.6647V13.5412M75.1647 14.9426C76.2164 15.1279 77.1681 15.6784 77.8533 16.4964M75.1647 14.9426H75.6647V14.541M75.1647 14.9426L75.2515 14.4502C75.3909 14.4747 75.5288 14.5051 75.6647 14.541M77.8533 16.4964C78.5377 17.3138 78.9112 18.3474 78.907 19.4133M77.8533 16.4964L78.2366 16.1754C78.9964 17.0827 79.4112 18.23 79.407 19.4133M77.8533 16.4964L78.2366 16.1754C77.5667 15.3756 76.6673 14.8062 75.6647 14.541M78.907 19.4133V27.7766C78.916 28.1349 78.889 28.4925 78.827 28.8445H79.334M78.907 19.4133H79.407M78.907 19.4133L79.334 28.8445M79.334 28.8445C79.391 28.4901 79.4157 28.1307 79.407 27.7705L79.407 19.4153L79.407 19.4133M75.6647 14.541V13.5412M73.3012 10.1736V8.80563M71.5136 14.1158V14.2955H66.8018V14.1158H71.5136ZM67.9836 3.6958H70.5289V4.8584H67.9836V3.6958ZM75.256 27.7463C75.256 28.2431 74.8518 28.6478 74.3519 28.6478H63.9637C63.4638 28.6478 63.0596 28.2431 63.0596 27.7463V19.3429C63.0596 18.8461 63.4638 18.4414 63.9637 18.4414H74.3519C74.8518 18.4414 75.256 18.8461 75.256 19.3429V27.7463ZM12.2891 24.4294C12.2898 23.2616 12.7541 22.1409 13.5807 21.3133C14.4071 20.4859 15.5287 20.0189 16.6992 20.0142H40.9858V28.8445H16.6992C15.5286 28.8398 14.407 28.3728 13.5807 27.5455C12.7542 26.7178 12.2898 25.5972 12.2891 24.4294ZM90.2257 83.3033H3.7769V32.9895H90.2257V83.3033Z" fill="#3587E6" stroke="#3587E6"/>
</g>
<defs>
<clipPath id="clip0_1552_12">
<rect width="94" height="87" fill="white"/>
</clipPath>
</defs>
</svg>
