<svg width="78" height="78" viewBox="0 0 78 78" fill="none" xmlns="http://www.w3.org/2000/svg">
<path d="M38.9999 0.593719C17.822 0.593719 0.592773 17.8247 0.592773 39.0008C0.592773 60.177 17.8221 77.4062 38.9999 77.4062C60.1794 77.4062 77.407 60.177 77.407 39.0008C77.407 17.823 60.1794 0.593719 38.9999 0.593719ZM38.9999 73.6128C19.9146 73.6128 4.38619 58.0844 4.38619 38.9991C4.38619 19.9139 19.9146 4.38545 38.9999 4.38545C58.0851 4.38545 73.6135 19.9139 73.6135 38.9991C73.6135 58.0844 58.0858 73.6128 38.9999 73.6128Z" fill="#3587E6" stroke="#3587E6"/>
<path d="M39.2584 34.7136C38.8962 34.7004 38.5492 34.7479 38.2108 34.8224L24.3381 22.2924L24.2022 22.1697L20.6001 20.6807L22.2435 23.8989L22.4605 24.143L34.9939 38.2636C34.9715 38.4186 34.9352 38.571 34.9293 38.7313C34.8442 41.0304 36.6459 42.9701 38.9456 43.0552C41.2461 43.1403 43.1863 41.3393 43.2714 39.0407C43.3598 36.7396 41.5587 34.7988 39.2582 34.7136L39.2584 34.7136Z" fill="#ADD7FF"/>
<path d="M32.7475 64.5681H28.303C27.9527 64.5681 27.6677 64.2831 27.6677 63.9328V56.1534C27.6677 55.8031 27.9527 55.5181 28.303 55.5181H32.7482C33.0985 55.5181 33.3835 55.8031 33.3835 56.1534V63.9328C33.3828 64.2844 33.0992 64.5681 32.7475 64.5681H32.7475Z" fill="#ADD7FF"/>
<path d="M41.2226 64.5681H36.7774C36.4271 64.5681 36.1421 64.2831 36.1421 63.9328V56.1534C36.1421 55.8031 36.4271 55.5181 36.7774 55.5181H41.2226C41.5729 55.5181 41.8579 55.8031 41.8579 56.1534V63.9328C41.8572 64.2844 41.5729 64.5681 41.2226 64.5681Z" fill="#ADD7FF"/>
<path d="M49.6957 64.5681H45.2505C44.9002 64.5681 44.6152 64.2831 44.6152 63.9328V56.1534C44.6152 55.8031 44.9002 55.5181 45.2505 55.5181H49.6957C50.046 55.5181 50.331 55.8031 50.331 56.1534V63.9328C50.331 64.2844 50.0473 64.5681 49.6957 64.5681Z" fill="#ADD7FF"/>
</svg>
