<svg width="86" height="64" viewBox="0 0 86 64" fill="none" xmlns="http://www.w3.org/2000/svg">
<g clip-path="url(#clip0_1552_32)">
<path d="M73.136 33.4921L73.1366 36.0321H55.755V12.7137H58.3188H58.8188V12.2137V0.0540771V-0.445923H58.3188H27.6821H27.1821V0.0540771V12.2137V12.7137H27.6821H30.246V36.0321H12.8643V33.492V32.992H12.3643H0.109619H-0.390381V33.492V63.8912V64.3912H0.109619H12.3643H12.8643V63.8912V61.3511H73.136V63.8912V64.3912H73.636H85.8907H86.3907V63.8912V33.492V32.992H85.8907H73.636H73.1359L73.136 33.4921ZM6.23689 60.3521H6.23663H3.67279V37.0337H8.80046V60.3535L6.23689 60.3521ZM52.1912 40.0729H73.137V57.312H12.8636V40.0729H33.8095H34.3095V39.5729V12.7141H51.6912V39.5729V40.0729H52.1912ZM79.7634 37.0324H79.7637H82.3275V60.3508H77.1998V37.0311L79.7634 37.0324ZM31.245 3.59416H54.7533V8.67367H31.245V3.59416Z" fill="#3587E6" stroke="#3587E6"/>
</g>
<defs>
<clipPath id="clip0_1552_32">
<rect width="86" height="64" fill="white"/>
</clipPath>
</defs>
</svg>
