<svg width="20" height="20" viewBox="0 0 20 20" fill="none" xmlns="http://www.w3.org/2000/svg">
<mask id="path-1-inside-1_1136_68" fill="white">
<path d="M0.833374 17.619C0.833374 14.4523 5.41671 11.6666 10 11.6666C14.5834 11.6666 19.1667 14.4523 19.1667 17.619V20H0.833374V17.619Z"/>
</mask>
<path d="M0.833374 17.619C0.833374 14.4523 5.41671 11.6666 10 11.6666C14.5834 11.6666 19.1667 14.4523 19.1667 17.619V20H0.833374V17.619Z" fill="#8B98A7"/>
<path d="M0.833374 20H-1.16663V22H0.833374V20ZM19.1667 20V22H21.1667V20H19.1667ZM10 9.66663C7.33276 9.66663 4.66831 10.469 2.62525 11.7673C0.653881 13.0201 -1.16663 15.0394 -1.16663 17.619H2.83337C2.83337 17.0319 3.30453 16.075 4.77067 15.1433C6.1651 14.2571 8.08398 13.6666 10 13.6666V9.66663ZM-1.16663 17.619V20H2.83337V17.619H-1.16663ZM0.833374 22H19.1667V18H0.833374V22ZM21.1667 20V17.619H17.1667V20H21.1667ZM21.1667 17.619C21.1667 15.0394 19.3462 13.0201 17.3748 11.7673C15.3318 10.469 12.6673 9.66663 10 9.66663V13.6666C11.9161 13.6666 13.835 14.2571 15.2294 15.1433C16.6955 16.075 17.1667 17.0319 17.1667 17.619H21.1667Z" fill="#8B98A7" mask="url(#path-1-inside-1_1136_68)"/>
<mask id="path-3-inside-2_1136_68" fill="white">
<path d="M5 5C5 2.2375 7.2375 0 10 0C12.7625 0 15 2.2375 15 5C15 7.7625 12.7625 10 10 10C7.2375 10 5 7.7625 5 5Z"/>
</mask>
<path d="M10 -2C6.13293 -2 3 1.13293 3 5H7C7 3.34207 8.34207 2 10 2V-2ZM3 5C3 8.86707 6.13293 12 10 12V8C8.34207 8 7 6.65793 7 5H3ZM10 12C13.8671 12 17 8.86707 17 5H13C13 6.65793 11.6579 8 10 8V12ZM17 5C17 1.13293 13.8671 -2 10 -2V2C11.6579 2 13 3.34207 13 5H17Z" fill="#8B98A7" mask="url(#path-3-inside-2_1136_68)"/>
</svg>
