<svg width="133" height="39" viewBox="0 0 133 39" fill="none" xmlns="http://www.w3.org/2000/svg">
<path d="M44.0911 24.6571C43.1129 24.1854 42.2883 23.4513 41.7115 22.5385C41.1347 21.6256 40.8289 20.5707 40.8289 19.4942C40.8289 18.4177 41.1347 17.3628 41.7115 16.45C42.2883 15.5371 43.1129 14.803 44.0911 14.3314C45.16 13.8098 46.3386 13.5463 47.5303 13.5625C48.7195 13.5326 49.8946 13.8223 50.9306 14.4006C51.8521 14.919 52.5676 15.7325 52.9591 16.7071L49.8192 18.291C49.301 17.2658 48.5303 16.7533 47.507 16.7533C47.1726 16.7435 46.8397 16.8024 46.5294 16.9261C46.2191 17.0498 45.938 17.2357 45.7039 17.4721C45.4555 17.7387 45.2641 18.0521 45.1413 18.3937C45.0184 18.7352 44.9665 19.0978 44.9888 19.4596C44.9665 19.8261 45.0183 20.1934 45.141 20.5399C45.2638 20.8864 45.4551 21.2053 45.7039 21.4779C45.9363 21.7173 46.2168 21.906 46.5273 22.0317C46.8378 22.1575 47.1716 22.2177 47.507 22.2083C48.5199 22.2083 49.2907 21.6957 49.8192 20.6706L52.9591 22.2582C52.5663 23.232 51.8511 24.0452 50.9306 24.5648C49.8942 25.1418 48.7191 25.43 47.5303 25.399C46.3406 25.4254 45.1617 25.171 44.0911 24.6571Z" fill="#253340"/>
<path d="M65.9112 14.8811C66.9216 15.7473 67.4281 17.0749 67.4307 18.8637V25.2298H63.6457V23.7498C63.0628 24.8646 61.9228 25.4208 60.2259 25.4182C59.4233 25.4383 58.6264 25.2793 57.8943 24.953C57.2868 24.6852 56.771 24.2485 56.4098 23.696C56.0713 23.1536 55.8973 22.5265 55.9085 21.8892C55.887 21.3974 55.9911 20.9083 56.2111 20.4668C56.4312 20.0254 56.7602 19.6459 57.1676 19.3635C58.0109 18.7638 59.3049 18.4639 61.0537 18.4639H63.362C63.2894 17.2543 62.4695 16.6482 60.9021 16.6456C60.3295 16.6481 59.7607 16.7376 59.2156 16.9109C58.6891 17.0632 58.1953 17.3095 57.7583 17.6374L56.3904 14.9118C57.107 14.458 57.895 14.1254 58.722 13.9277C59.626 13.6976 60.5555 13.5801 61.4889 13.5779C63.4267 13.5779 64.9009 14.0123 65.9112 14.8811ZM62.6003 22.5427C62.9661 22.3095 63.2404 21.9595 63.3775 21.5509V20.5552H61.6249C60.4384 20.5552 59.8464 20.9396 59.849 21.7085C59.8413 21.8698 59.8726 22.0307 59.9402 22.1777C60.0077 22.3248 60.1097 22.4538 60.2376 22.5542C60.5609 22.7815 60.9531 22.8927 61.349 22.8695C61.7895 22.8846 62.2247 22.7709 62.6003 22.5427Z" fill="#253340"/>
<path d="M72.0007 13.7701H76.0422V17.9988H80.2081V13.7701H84.269V25.2299H80.2081V21.2126H76.0422V25.2299H72.0007V13.7701Z" fill="#253340"/>
<path d="M99.4827 16.9609H95.7638V25.2299H91.7301V16.9609H87.9878V13.7701H99.4827V16.9609Z" fill="#253340"/>
<path d="M110.857 14.2775C111.84 14.7491 112.664 15.4901 113.233 16.4123C113.801 17.3345 114.089 18.399 114.063 19.4788C114.081 20.5718 113.789 21.6479 113.22 22.585C112.655 23.506 111.835 24.2476 110.857 24.7224C109.789 25.2457 108.61 25.5092 107.418 25.4912C106.342 25.5072 105.273 25.3099 104.274 24.9108C103.383 24.5473 102.593 23.9778 101.97 23.25L104.302 21.1357C104.665 21.5595 105.118 21.8995 105.628 22.1319C106.138 22.3643 106.693 22.4835 107.255 22.4812C107.874 22.4974 108.484 22.343 109.019 22.0352C109.504 21.7458 109.882 21.3089 110.096 20.7897H105.782V18.1256H110.076C109.854 17.6169 109.473 17.1923 108.988 16.9147C108.459 16.6226 107.86 16.4778 107.255 16.4957C106.693 16.4956 106.139 16.6166 105.629 16.8503C105.12 17.084 104.668 17.4248 104.305 17.8489L101.974 15.7576C102.597 15.0298 103.387 14.4603 104.278 14.0969C105.276 13.6959 106.345 13.4985 107.422 13.5164C108.612 13.4966 109.79 13.7575 110.857 14.2775Z" fill="#253340"/>
<path d="M129.347 25.2299V19.2213L126.374 24.2188H124.645L121.758 19.1213V25.2337H118.105V13.7701H122.379L125.605 19.7518L129.153 13.7701H132.981L133 25.2299H129.347Z" fill="#253340"/>
<path d="M16.0727 33.4028C13.2137 33.4028 10.4718 32.2792 8.45016 30.2794C6.42853 28.2795 5.2928 25.5671 5.2928 22.7388V16.9493C5.29229 15.5486 5.57074 14.1615 6.11225 12.8672C6.65377 11.573 7.44773 10.3969 8.44878 9.40628C9.44984 8.41563 10.6384 7.62979 11.9465 7.09363C13.2546 6.55748 14.6567 6.28152 16.0727 6.28152L31.3526 6.41222V0H13.3602C9.81688 0 6.41865 1.39245 3.91312 3.87104C1.40759 6.34963 0 9.71131 0 13.2166L0 25.7796C-1.49818e-07 29.2852 1.40747 32.6473 3.91289 35.1265C6.4183 37.6057 9.81652 38.999 13.3602 39H31.3526V33.3759L16.0727 33.4028Z" fill="url(#paint0_linear_1536_20)"/>
<path d="M22.8771 17.2761H31.3876V22.6811H22.8771C22.2123 22.6811 21.5748 22.4199 21.1047 21.9548C20.6347 21.4898 20.3706 20.8592 20.3706 20.2015V19.7518C20.3706 19.4261 20.4354 19.1037 20.5614 18.8029C20.6874 18.502 20.872 18.2287 21.1047 17.9985C21.3375 17.7682 21.6138 17.5856 21.9179 17.461C22.222 17.3364 22.5479 17.2722 22.8771 17.2722V17.2761Z" fill="url(#paint1_linear_1536_20)"/>
<defs>
<linearGradient id="paint0_linear_1536_20" x1="15.6763" y1="0" x2="15.6763" y2="39" gradientUnits="userSpaceOnUse">
<stop stop-color="#009EDF"/>
<stop offset="1" stop-color="#0079C4"/>
</linearGradient>
<linearGradient id="paint1_linear_1536_20" x1="597.989" y1="298.317" x2="910.21" y2="298.317" gradientUnits="userSpaceOnUse">
<stop stop-color="#009EDF"/>
<stop offset="1" stop-color="#0079C4"/>
</linearGradient>
</defs>
</svg>
