<svg width="9" height="9" viewBox="0 0 9 9" fill="none" xmlns="http://www.w3.org/2000/svg">
<path d="M8.5434 6.40725C8.76483 6.52668 8.91243 6.58637 8.96776 6.68587C9.0231 6.78532 9.0231 7.26288 8.83867 7.82013C8.65407 8.37727 7.76944 8.88577 7.34397 8.95423C6.96249 9.01567 6.47971 9.04129 5.94928 8.85971C5.62765 8.7498 5.21523 8.60304 4.68692 8.35727C2.46559 7.3241 1.01488 4.91497 0.904173 4.75571L0.902386 4.75314C0.785198 4.58472 0 3.45623 0 2.28831C0 1.11435 0.572038 0.53729 0.775004 0.298494C0.97797 0.0596987 1.21788 0 1.36549 0C1.5131 0 1.66088 0.00146941 1.78989 0.00844958C1.92581 0.0157972 2.10835 -0.0472083 2.28811 0.417892C2.47263 0.895484 2.91548 2.06953 2.97083 2.18893C3.0262 2.30833 3.0631 2.44756 2.98929 2.60682C2.91548 2.7659 2.87857 2.86546 2.76786 3.00469C2.65716 3.14393 2.53533 3.31568 2.4357 3.42259C2.32485 3.54152 2.20945 3.67057 2.33862 3.90936C2.46779 4.14816 2.91219 4.9292 3.57048 5.56169C4.41629 6.37433 5.12979 6.62618 5.35122 6.74556C5.57257 6.86499 5.70175 6.84501 5.83093 6.68587C5.96011 6.52668 6.38447 5.98936 6.53207 5.75061C6.67966 5.51191 6.82734 5.55167 7.03027 5.63124C7.23329 5.71091 8.32196 6.28787 8.5434 6.40725Z" fill="#8B98A7"/>
</svg>
