<svg width="95" height="79" viewBox="0 0 95 79" fill="none" xmlns="http://www.w3.org/2000/svg">
<path d="M95 74.6418C94.9921 75.7944 94.5384 76.8976 93.7369 77.7131C92.9354 78.5285 91.8504 78.9908 90.7164 79H12.92C11.7835 78.9988 10.694 78.5392 9.89075 77.722C9.08754 76.9048 8.63636 75.7969 8.63636 74.6418V70.2222H86.3636V18.8722L51.8182 50.4722L8.63636 10.9722V4.38889C8.63636 3.22488 9.09131 2.10855 9.90113 1.28548C10.7109 0.462399 11.8093 0 12.9545 0H90.6818C91.8271 0 92.9254 0.462399 93.7352 1.28548C94.5451 2.10855 95 3.22488 95 4.38889V74.6418ZM19.1468 8.77778L51.8182 38.6661L84.4895 8.77778H19.1468ZM0 52.6667H34.5455V61.4444H0V52.6667ZM0 30.7222H21.5909V39.5H0V30.7222Z" fill="white"/>
</svg>
