<svg width="26" height="24" viewBox="0 0 26 24" fill="none" xmlns="http://www.w3.org/2000/svg">
<path fill-rule="evenodd" clip-rule="evenodd" d="M5.87842 2.40305C5.6653 2.40259 5.45985 2.42671 5.26463 2.47257C4.99701 1.88272 4.64351 1.35353 4.24145 0.951472C3.55904 0.269065 2.48278 0 0.99292 0V2.4C1.90306 2.4 2.4268 2.53094 2.54439 2.64853C2.99796 3.10209 3.39292 4.02367 3.39292 4.8L3.40498 4.96971L4.58082 13.2006C2.61335 13.3027 1.08916 14.8306 0.994394 16.7405L0.99292 18C1.10911 19.9727 2.62822 21.4902 4.52481 21.5981L4.79723 21.5985C5.291 22.9975 6.62489 24 8.19292 24C9.76038 24 11.0939 22.9982 11.5881 21.6H14.3978C14.892 22.9982 16.2255 24 17.7929 24C19.7811 24 21.3929 22.3882 21.3929 20.4C21.3929 18.4118 19.7811 16.8 17.7929 16.8C16.2255 16.8 14.892 17.8018 14.3978 19.2H11.5881C11.0939 17.8018 9.76038 16.8 8.19292 16.8C6.62546 16.8 5.29197 17.8018 4.79777 19.2H4.59292C3.98093 19.1633 3.43196 18.6149 3.39077 17.9281L3.39292 16.8C3.42528 16.1776 3.97049 15.6324 4.65239 15.5985L7.02135 15.5991L7.03852 15.6H19.1331L19.3103 15.5438C20.2201 15.2551 20.9485 14.57 21.2934 13.683L21.4198 13.4328L21.8305 12.619C22.2554 11.7767 22.6804 10.9329 23.0945 10.1086C24.1088 8.08929 24.7467 6.80599 24.8879 6.49087C25.6134 4.87254 24.1438 3.62696 22.6418 3.60043L5.87842 2.40305ZM18.7162 13.2H7.12836C7.05131 13.1786 6.99259 13.1133 6.9811 13.032L5.80522 4.80088L22.465 5.99391C22.1735 6.58838 21.6436 7.65019 20.9498 9.03131L20.9325 9.06591C20.5365 9.85423 20.1121 10.6969 19.6877 11.5381L19.2775 12.3508L19.122 12.6586L19.0634 12.7947C19.0008 12.9693 18.8763 13.1128 18.7162 13.2ZM17.7929 21.6C18.4557 21.6 18.9929 21.0627 18.9929 20.4C18.9929 19.7373 18.4557 19.2 17.7929 19.2C17.1302 19.2 16.5929 19.7373 16.5929 20.4C16.5929 21.0627 17.1302 21.6 17.7929 21.6ZM9.39292 20.4C9.39292 21.0627 8.85566 21.6 8.19292 21.6C7.53018 21.6 6.99292 21.0627 6.99292 20.4C6.99292 19.7373 7.53018 19.2 8.19292 19.2C8.85566 19.2 9.39292 19.7373 9.39292 20.4Z" fill="white"/>
</svg>
