<svg width="84" height="78" viewBox="0 0 84 78" fill="none" xmlns="http://www.w3.org/2000/svg">
<path d="M17.5014 33.2271L17.5019 35.7412H0.500366V0.585022H17.5004V3.09656V3.59657L18.0004 3.59656L41.9987 3.5959C49.9907 3.5959 56.498 10.1268 56.498 18.1596V24.186V24.686H56.998H59.498V45.2778V45.7778H59.998H65.9987H66.4987V45.2778V43.2678H78L83.5 43.2681V77.4184L78.0027 77.419H66.5014V75.4089V74.9089H66.0014H42.0014C34.0093 74.9089 27.502 68.3781 27.502 60.3452V54.3188V53.8188H27.002H24.502V33.227V32.727H24.002H18.0014H17.5013L17.5014 33.2271ZM12 30.7128H12.5V30.2128V27.7006L32.5 27.6999V29.7128H30H29.5V30.2128V36.2392V36.7392H30H54H54.5V36.2392V30.2128V29.7128H54H51.5V18.1613C51.5 12.8959 47.2503 8.62266 42 8.62266H12.5V6.10978V5.60978H12H5.99937H5.49937V6.10978V30.2128V30.7128H5.99937H12ZM71.501 48.7928V50.8029H51.501V48.79H54.001H54.501V48.29V42.2636V41.7636H54.001H30.001H29.501V42.2636V48.29V48.79H30.001H32.501V60.3429C32.501 65.6104 36.7529 69.8815 42.001 69.8815L71.4993 69.8809V71.8909V72.3909H71.9993H78H78.5V71.8909V52.0361L78.5017 52.0368V51.3036V48.7928V48.2928H78.0017H72.001H71.501V48.7928Z" fill="#3587E6" stroke="white"/>
<path d="M24.502 53.8188V36.7403L54 36.7392H59.498V45.2779V45.7779H59.998H65.9987H66.4987V45.2779V43.2678H78L83.5 43.2681V77.4184L78.0027 77.419H66.5014V75.4089V74.9089H66.0014H42.0014C34.0093 74.9089 27.502 68.3781 27.502 60.3452V54.3188V53.8188H27.002H24.502ZM71.501 48.7929V50.8029H51.501V48.79H54.001H54.501V48.29V42.2636V41.7636H54.001H30.001H29.501V42.2636V48.29V48.79H30.001H32.501V60.3429C32.501 65.6104 36.7529 69.8815 42.001 69.8815L71.4993 69.8809V71.8909V72.3909H71.9993H78H78.5V71.8909V52.0361L78.5017 52.0368V51.3036V48.7929V48.2929H78.0017H72.001H71.501V48.7929Z" fill="#ADD7FF" stroke="white"/>
</svg>
