<svg width="108" height="108" viewBox="0 0 108 108" fill="none" xmlns="http://www.w3.org/2000/svg">
<g clip-path="url(#clip0_1550_2)">
<path d="M83.7001 27H72.9V18.9C72.8976 16.7526 72.0436 14.6932 70.5254 13.1746C69.0067 11.6564 66.9474 10.8024 64.8 10.8H32.4V2.69997C32.4 1.98399 32.1156 1.29693 31.6093 0.790684C31.1031 0.284441 30.416 -3.05176e-05 29.7 -3.05176e-05H13.5C12.7841 -3.05176e-05 12.097 0.284441 11.5908 0.790684C11.0845 1.29693 10.8 1.98399 10.8 2.69997V24.3C10.8 25.0159 11.0845 25.703 11.5908 26.2092C12.097 26.7155 12.7841 27 13.5 27H29.7C30.416 27 31.1031 26.7155 31.6093 26.2092C32.1156 25.703 32.4 25.0159 32.4 24.3V16.2H64.8C65.516 16.2 66.2031 16.4844 66.7093 16.9907C67.2156 17.4969 67.5 18.184 67.5 18.9V27H56.7001C53.1208 27.0042 49.6892 28.4277 47.1584 30.9583C44.6277 33.4889 43.2042 36.9207 43.2001 40.5V62.1C43.2001 62.8159 43.4845 63.503 43.9908 64.0092C44.497 64.5155 45.1841 64.8 45.9 64.8H94.5C95.216 64.8 95.9031 64.5155 96.4093 64.0092C96.9156 63.503 97.2001 62.8159 97.2001 62.1V40.5C97.1958 36.9207 95.7723 33.4891 93.2417 30.9583C90.7111 28.4276 87.2793 27.0041 83.7001 27ZM27 21.6H16.2V5.39997H27V21.6ZM56.7001 32.4H83.7001C85.8474 32.4024 87.9068 33.2564 89.4254 34.7746C90.9436 36.2933 91.7976 38.3526 91.8 40.5V48.6H48.6V43.2H56.7001C57.6649 43.2 58.5563 42.6853 59.0384 41.85C59.5205 41.0146 59.5205 39.9853 59.0384 39.15C58.5563 38.3147 57.6649 37.8 56.7001 37.8H49.0725C49.6312 36.2227 50.6641 34.8571 52.0298 33.8904C53.3955 32.9237 55.027 32.403 56.7001 32.3999V32.4ZM91.8 59.4H48.6V54H91.8V59.4Z" fill="#3587E6"/>
<path d="M68.2823 70.9961C67.7802 71.5023 67.4988 72.1864 67.4994 72.8994C67.4994 73.8643 68.0141 74.7556 68.8494 75.2377C69.6847 75.7199 70.7141 75.7199 71.5494 75.2377C72.3847 74.7556 72.8994 73.8642 72.8994 72.8994C72.8988 72.1798 72.6125 71.4903 72.1027 70.9822C71.5831 70.4995 70.8991 70.2325 70.1898 70.2349C69.4805 70.2373 68.7988 70.5091 68.2824 70.9961L68.2823 70.9961Z" fill="#ADD7FF"/>
<path d="M84.4962 70.9961C83.993 71.5023 83.7103 72.187 83.7109 72.9012C83.7109 73.6148 83.9942 74.2994 84.498 74.8051C85.0019 75.3107 85.6859 75.5964 86.3995 75.5994C87.1185 75.5964 87.8073 75.3101 88.3166 74.8027C88.8187 74.2964 89.1001 73.6124 89.0995 72.8994C89.1013 72.1834 88.8144 71.497 88.3028 70.9961C87.7893 70.508 87.1076 70.2361 86.3995 70.2361C85.6913 70.2361 85.0097 70.508 84.4962 70.9961L84.4962 70.9961Z" fill="#ADD7FF"/>
<path d="M52.0962 70.9822C51.5863 71.4903 51.3001 72.1797 51.2995 72.8994C51.2958 73.8028 51.7442 74.6484 52.494 75.1523C53.2437 75.6561 54.1959 75.7513 55.0312 75.406C55.8659 75.0606 56.4728 74.3205 56.6481 73.4347C56.8235 72.5481 56.5438 71.6326 55.9026 70.9962C55.3891 70.5092 54.7093 70.2374 54.0018 70.2344C53.2949 70.232 52.6126 70.4996 52.0961 70.9823L52.0962 70.9822Z" fill="#ADD7FF"/>
<path d="M60.1962 81.7961C59.5639 82.4331 59.2915 83.3431 59.4687 84.2225C59.6459 85.1024 60.2498 85.8359 61.0792 86.1789C61.9085 86.5218 62.8535 86.429 63.6002 85.9312C64.3469 85.4339 64.7965 84.5968 64.7995 83.6994C64.7971 82.9804 64.5108 82.2916 64.0028 81.7823C63.4863 81.2995 62.8041 81.0319 62.097 81.0343C61.3895 81.0373 60.7097 81.3091 60.1962 81.7961L60.1962 81.7961Z" fill="#ADD7FF"/>
<path d="M76.3822 81.7961C75.8778 82.3029 75.5957 82.99 75.5969 83.7054C75.5987 84.4207 75.8844 85.1066 76.3906 85.6116C76.8975 86.1166 77.584 86.3999 78.2993 86.3993C79.0135 86.3938 79.6975 86.1076 80.2026 85.6025C80.7076 85.0975 80.9939 84.4134 80.9993 83.6993C80.9987 82.9797 80.7125 82.2902 80.2026 81.7821C79.6831 81.2994 78.999 81.0324 78.2897 81.0348C77.5805 81.0372 76.8988 81.309 76.3823 81.796L76.3822 81.7961Z" fill="#ADD7FF"/>
<path d="M92.5823 81.7961C92.0778 82.3029 91.7958 82.99 91.797 83.7054C91.7988 84.4207 92.0845 85.1066 92.5907 85.6116C93.0976 86.1166 93.784 86.3999 94.4994 86.3993C95.2184 86.3962 95.9072 86.11 96.4165 85.6025C96.9216 85.0945 97.2042 84.4062 97.2018 83.6897C97.1988 82.9731 96.9119 82.2873 96.4027 81.7822C95.8832 81.2995 95.1991 81.0325 94.4898 81.0349C93.7806 81.0373 93.0989 81.3091 92.5824 81.7961L92.5823 81.7961Z" fill="#ADD7FF"/>
<path d="M43.9962 81.7961C43.364 82.4331 43.0916 83.3431 43.2688 84.2225C43.446 85.1024 44.0499 85.8359 44.8792 86.1789C45.7085 86.5218 46.6535 86.429 47.4003 85.9312C48.147 85.4339 48.5966 84.5968 48.5996 83.6994C48.5972 82.9804 48.3109 82.2916 47.8028 81.7823C47.2863 81.2995 46.6041 81.0319 45.8971 81.0343C45.1896 81.0373 44.5097 81.3091 43.9963 81.7961L43.9962 81.7961Z" fill="#ADD7FF"/>
</g>
<defs>
<clipPath id="clip0_1550_2">
<rect width="108" height="108" fill="white"/>
</clipPath>
</defs>
</svg>
