<svg width="79" height="73" viewBox="0 0 79 73" fill="none" xmlns="http://www.w3.org/2000/svg">
<mask id="path-1-outside-1_1540_112" maskUnits="userSpaceOnUse" x="-1" y="-1" width="81" height="75" fill="black">
<rect fill="white" x="-1" y="-1" width="81" height="75"/>
<path d="M21.009 72.2133V46.7129L32.1268 55.6928C32.4575 55.9524 32.8353 56.0935 33.2366 56.0935C33.4966 56.0935 33.7557 56.0465 33.9921 55.9289C34.6055 55.6457 35.0068 55.0098 35.0068 54.3259V45.3695C35.0068 44.8276 34.7704 44.3328 34.3455 44.0026L21.009 33.2083V26.3027H60.1454V31.2047C60.1454 32.1943 60.9481 32.9723 61.9156 32.9723H72.9863C73.9774 32.9723 74.7565 32.1708 74.7565 31.2047V26.3027H76.9516C77.9427 26.3027 78.7218 25.5012 78.7218 24.5351V13.245C78.7218 12.2553 77.9191 11.4774 76.9516 11.4774H21.0082V1.76759C21.0082 0.777938 20.2056 0 19.238 0H1.77025C0.779111 0 0 0.801466 0 1.76759V72.2142L3.54319 72.1888C16.7992 72.1896 17.446 72.1896 17.446 72.1896L21.009 72.2133L21.009 72.1888C21.009 72.2133 21.009 72.1642 21.009 72.1888L21.009 72.2133ZM71.2162 29.4131H63.6868V26.2788H71.2162V29.4131ZM21.0109 15.0121H75.1837V22.7426H21.0109V15.0121ZM21.0109 37.7553L31.4675 46.2169V50.6006L21.0109 42.139V37.7553ZM3.54319 3.534H17.446V72.1896C12.0166 72.1893 8.97257 72.1891 3.54319 72.1888V3.534Z"/>
</mask>
<path d="M21.009 72.2133V46.7129L32.1268 55.6928C32.4575 55.9524 32.8353 56.0935 33.2366 56.0935C33.4966 56.0935 33.7557 56.0465 33.9921 55.9289C34.6055 55.6457 35.0068 55.0098 35.0068 54.3259V45.3695C35.0068 44.8276 34.7704 44.3328 34.3455 44.0026L21.009 33.2083V26.3027H60.1454V31.2047C60.1454 32.1943 60.9481 32.9723 61.9156 32.9723H72.9863C73.9774 32.9723 74.7565 32.1708 74.7565 31.2047V26.3027H76.9516C77.9427 26.3027 78.7218 25.5012 78.7218 24.5351V13.245C78.7218 12.2553 77.9191 11.4774 76.9516 11.4774H21.0082V1.76759C21.0082 0.777938 20.2056 0 19.238 0H1.77025C0.779111 0 0 0.801466 0 1.76759V72.2142L3.54319 72.1888C16.7992 72.1896 17.446 72.1896 17.446 72.1896L21.009 72.2133L21.009 72.1888C21.009 72.2133 21.009 72.1642 21.009 72.1888L21.009 72.2133ZM71.2162 29.4131H63.6868V26.2788H71.2162V29.4131ZM21.0109 15.0121H75.1837V22.7426H21.0109V15.0121ZM21.0109 37.7553L31.4675 46.2169V50.6006L21.0109 42.139V37.7553ZM3.54319 3.534H17.446V72.1896C12.0166 72.1893 8.97257 72.1891 3.54319 72.1888V3.534Z" fill="#3587E6"/>
<path d="M21.009 72.2133L21.0065 72.7133L21.5091 72.7158L21.509 72.2132L21.009 72.2133ZM21.509 72.2132L21.509 72.1887L20.509 72.1889L20.509 72.2134L21.509 72.2132ZM21.0115 71.7133C19.3086 71.7048 18.4184 71.6989 17.9542 71.6951C17.7221 71.6932 17.597 71.6918 17.5303 71.691C17.4969 71.6905 17.4787 71.6902 17.4693 71.69C17.4646 71.6899 17.4625 71.6899 17.462 71.6899C17.4618 71.6899 17.4622 71.6899 17.463 71.6899C17.4634 71.6899 17.464 71.6899 17.4647 71.69C17.465 71.69 17.4654 71.69 17.4659 71.69C17.4661 71.69 17.4663 71.69 17.4666 71.69C17.4667 71.69 17.4669 71.69 17.4669 71.6901C17.4671 71.6901 17.4673 71.6901 17.446 72.1896C17.4247 72.6892 17.4249 72.6892 17.4251 72.6892C17.4251 72.6892 17.4253 72.6892 17.4254 72.6892C17.4257 72.6892 17.4259 72.6892 17.4262 72.6892C17.4266 72.6892 17.4271 72.6893 17.4276 72.6893C17.4284 72.6893 17.4293 72.6893 17.4301 72.6894C17.4317 72.6894 17.4334 72.6895 17.4352 72.6895C17.4387 72.6896 17.4433 72.6897 17.4495 72.6898C17.462 72.6901 17.4826 72.6904 17.5171 72.6909C17.5863 72.6918 17.7132 72.6932 17.9461 72.6951C18.4118 72.6989 19.3032 72.7048 21.0065 72.7133L21.0115 71.7133ZM21.009 72.2133L21.0024 73.2133L22.009 73.22V72.2133H21.009ZM21.009 46.7129L21.6374 45.935L20.009 44.6197V46.7129H21.009ZM32.1268 55.6928L31.4984 56.4708L31.5093 56.4794L32.1268 55.6928ZM33.9921 55.9289L33.573 55.0209L33.5598 55.027L33.5467 55.0335L33.9921 55.9289ZM34.3455 44.0027L33.7164 44.7799L33.7241 44.7862L33.7319 44.7923L34.3455 44.0027ZM21.009 33.2083H20.009V33.6854L20.3798 33.9856L21.009 33.2083ZM21.009 26.3027V25.3027H20.009V26.3027H21.009ZM60.1454 26.3027H61.1454V25.3027H60.1454V26.3027ZM74.7565 26.3027V25.3027H73.7565V26.3027H74.7565ZM21.0082 11.4774H20.0082V12.4774H21.0082V11.4774ZM0 72.2142H-1V73.2213L0.00716323 73.2141L0 72.2142ZM21.009 72.1888L20.009 72.1886V72.1888H21.009ZM71.2162 29.4131V30.4131H72.2162V29.4131H71.2162ZM63.6868 29.4131H62.6868V30.4131H63.6868V29.4131ZM63.6868 26.2788V25.2788H62.6868V26.2788H63.6868ZM71.2162 26.2788H72.2162V25.2788H71.2162V26.2788ZM21.0109 15.0121V14.0121H20.0109V15.0121H21.0109ZM75.1837 15.0121H76.1837V14.0121H75.1837V15.0121ZM75.1837 22.7426V23.7426H76.1837V22.7426H75.1837ZM21.0109 22.7426H20.0109V23.7426H21.0109V22.7426ZM21.0109 37.7553L21.64 36.978L20.0109 35.6597V37.7553H21.0109ZM31.4675 46.2169H32.4675V45.7397L32.0965 45.4395L31.4675 46.2169ZM31.4675 50.6006L30.8384 51.378L32.4675 52.6962V50.6006H31.4675ZM21.0109 42.139H20.0109V42.6162L20.3819 42.9164L21.0109 42.139ZM3.54319 3.534V2.534H2.54319V3.534H3.54319ZM17.446 3.534H18.446V2.534H17.446V3.534ZM22.009 72.2133V46.7129H20.009V72.2133H22.009ZM20.3807 47.4908L31.4985 56.4707L32.7552 54.9148L21.6374 45.935L20.3807 47.4908ZM31.5093 56.4794C31.9973 56.8624 32.5885 57.0935 33.2366 57.0935V55.0935C33.082 55.0935 32.9177 55.0423 32.7443 54.9062L31.5093 56.4794ZM33.2366 57.0935C33.6149 57.0935 34.0336 57.0251 34.4375 56.8242L33.5467 55.0335C33.4779 55.0678 33.3782 55.0935 33.2366 55.0935V57.0935ZM34.4112 56.8368C35.3862 56.3868 36.0068 55.3915 36.0068 54.3259H34.0068C34.0068 54.6281 33.8248 54.9047 33.573 55.0209L34.4112 56.8368ZM36.0068 54.3259V45.3695H34.0068V54.3259H36.0068ZM36.0068 45.3695C36.0068 44.5275 35.6345 43.7379 34.9591 43.213L33.7319 44.7923C33.9063 44.9278 34.0068 45.1278 34.0068 45.3695H36.0068ZM34.9746 43.2254L21.6381 32.431L20.3798 33.9856L33.7164 44.7799L34.9746 43.2254ZM22.009 33.2083V26.3027H20.009V33.2083H22.009ZM21.009 27.3027H60.1454V25.3027H21.009V27.3027ZM59.1454 26.3027V31.2047H61.1454V26.3027H59.1454ZM59.1454 31.2047C59.1454 32.7567 60.4059 33.9723 61.9156 33.9723V31.9723C61.4902 31.9723 61.1454 31.632 61.1454 31.2047H59.1454ZM61.9156 33.9723H72.9863V31.9723H61.9156V33.9723ZM72.9863 33.9723C74.5369 33.9723 75.7565 32.7158 75.7565 31.2047H73.7565C73.7565 31.6258 73.4179 31.9723 72.9863 31.9723V33.9723ZM75.7565 31.2047V26.3027H73.7565V31.2047H75.7565ZM74.7565 27.3027H76.9516V25.3027H74.7565V27.3027ZM76.9516 27.3027C78.5022 27.3027 79.7218 26.0462 79.7218 24.5351H77.7218C77.7218 24.9562 77.3832 25.3027 76.9516 25.3027V27.3027ZM79.7218 24.5351V13.245H77.7218V24.5351H79.7218ZM79.7218 13.245C79.7218 11.693 78.4613 10.4774 76.9516 10.4774V12.4774C77.377 12.4774 77.7218 12.8177 77.7218 13.245H79.7218ZM76.9516 10.4774H21.0082V12.4774H76.9516V10.4774ZM22.0082 11.4774V1.76759H20.0082V11.4774H22.0082ZM22.0082 1.76759C22.0082 0.215587 20.7477 -1 19.238 -1V1C19.6634 1 20.0082 1.34029 20.0082 1.76759H22.0082ZM19.238 -1H1.77025V1H19.238V-1ZM1.77025 -1C0.219585 -1 -1 0.25645 -1 1.76759H1C1 1.34648 1.33864 1 1.77025 1V-1ZM-1 1.76759V72.2142H1V1.76759H-1ZM0.00716323 73.2141L3.55036 73.1888L3.53603 71.1888L-0.00716323 71.2142L0.00716323 73.2141ZM3.54313 73.1888C10.1724 73.1892 13.6455 73.1894 15.4655 73.1895C16.3745 73.1896 16.8704 73.1896 17.1377 73.1896C17.2716 73.1896 17.3487 73.1896 17.3922 73.1896C17.4129 73.1896 17.4286 73.1896 17.4354 73.1896C17.4388 73.1896 17.4427 73.1896 17.4437 73.1896C17.4438 73.1896 17.4439 73.1896 17.444 73.1896C17.4441 73.1896 17.4442 73.1896 17.4442 73.1896C17.4447 73.1896 17.4443 73.1896 17.4447 73.1896C17.4448 73.1896 17.4449 73.1896 17.4449 73.1896C17.445 73.1896 17.445 73.1896 17.4451 73.1896C17.4455 73.1896 17.445 73.1896 17.4454 73.1896C17.4458 73.1896 17.4455 73.1896 17.4458 73.1896C17.4458 73.1896 17.4458 73.1896 17.4459 73.1896C17.4459 73.1896 17.4459 73.1896 17.4459 73.1896C17.4459 73.1896 17.4459 73.1896 17.4459 73.1896C17.4459 73.1896 17.4459 73.1896 17.446 72.1896C17.4461 71.1896 17.4461 71.1896 17.446 71.1896C17.446 71.1896 17.446 71.1896 17.446 71.1896C17.446 71.1896 17.446 71.1896 17.4459 71.1896C17.4455 71.1896 17.4461 71.1896 17.4455 71.1896C17.4446 71.1896 17.4459 71.1896 17.4448 71.1896C17.4436 71.1896 17.4452 71.1896 17.4438 71.1896C17.4429 71.1896 17.4388 71.1896 17.4356 71.1896C17.4288 71.1896 17.413 71.1896 17.3924 71.1896C17.3488 71.1896 17.2717 71.1896 17.1379 71.1896C16.8705 71.1896 16.3746 71.1896 15.4656 71.1895C13.6457 71.1894 10.1725 71.1892 3.54325 71.1888L3.54313 73.1888ZM17.4393 73.1896L21.0024 73.2133L21.0157 71.2133L17.4526 71.1896L17.4393 73.1896ZM22.009 72.189C22.009 72.1859 22.009 72.184 22.009 72.183C22.009 72.1824 22.009 72.1824 22.009 72.1825C22.009 72.1826 22.009 72.1827 22.009 72.1828C22.009 72.1829 22.009 72.1833 22.009 72.1837C22.009 72.1839 22.009 72.1846 22.009 72.1854C22.009 72.186 22.009 72.1875 22.009 72.1885C22.009 72.1909 22.0087 72.2077 22.0082 72.2221C21.002 73.1817 20.0092 72.1998 20.0091 72.1915C20.0091 72.1896 20.009 72.1869 20.009 72.186C20.009 72.1848 20.009 72.1838 20.009 72.1837C20.009 72.1831 20.009 72.1827 20.009 72.1826C20.009 72.1825 20.009 72.1824 20.009 72.1823C20.009 72.1823 20.009 72.1822 20.009 72.1822C20.009 72.1822 20.009 72.1822 20.009 72.1822C20.009 72.1822 20.009 72.1822 20.009 72.1822C20.009 72.1822 20.009 72.1823 20.009 72.1824C20.009 72.1825 20.009 72.1827 20.009 72.1829C20.009 72.1833 20.009 72.1838 20.009 72.1844C20.009 72.1856 20.009 72.1872 20.009 72.1887C20.009 72.1902 20.009 72.1917 20.009 72.1929C20.009 72.1936 20.009 72.1941 20.009 72.1945C20.009 72.1947 20.009 72.1949 20.009 72.195C20.009 72.1951 20.009 72.1951 20.009 72.1952C20.009 72.1952 20.009 72.1952 20.009 72.1952C20.009 72.1952 20.009 72.1952 20.009 72.1952C20.009 72.1952 20.009 72.1951 20.009 72.195C20.009 72.195 20.009 72.1949 20.009 72.1947C20.009 72.1947 20.009 72.1942 20.009 72.1937C20.009 72.1936 20.009 72.1926 20.009 72.1914C20.009 72.1905 20.0091 72.1877 20.0091 72.1858C20.0092 72.1776 21.0022 71.1959 22.0082 72.1556C22.0087 72.1701 22.009 72.1869 22.009 72.1893C22.009 72.1902 22.009 72.1917 22.009 72.1923C22.009 72.1932 22.009 72.1939 22.009 72.194C22.009 72.1945 22.009 72.1948 22.009 72.1949C22.009 72.1951 22.009 72.1952 22.009 72.1952C22.009 72.1954 22.009 72.1953 22.009 72.1947C22.009 72.1937 22.009 72.1918 22.009 72.1888H20.009C20.009 72.1918 20.009 72.1938 20.009 72.1949C20.009 72.1954 20.009 72.196 20.009 72.1964C20.009 72.1964 20.009 72.1966 20.009 72.1967C20.009 72.1968 20.009 72.1972 20.009 72.1977C20.009 72.1978 20.009 72.1985 20.009 72.1994C20.009 72.2 20.009 72.2015 20.009 72.2025C20.0091 72.2049 20.0094 72.2217 20.0098 72.2361C21.0159 73.1958 22.0089 72.2141 22.009 72.2059C22.009 72.204 22.009 72.2012 22.009 72.2004C22.009 72.1991 22.009 72.1981 22.009 72.198C22.009 72.1974 22.009 72.197 22.009 72.1969C22.009 72.1968 22.009 72.1966 22.009 72.1965C22.009 72.1964 22.009 72.1962 22.009 72.1961C22.009 72.1951 22.009 72.1918 22.009 72.1889C22.009 72.1859 22.009 72.1826 22.009 72.1816C22.009 72.1815 22.009 72.1814 22.009 72.1812C22.009 72.1811 22.009 72.181 22.009 72.1808C22.009 72.1807 22.009 72.1803 22.009 72.1797C22.009 72.1796 22.009 72.1786 22.009 72.1774C22.009 72.1765 22.009 72.1738 22.009 72.1718C22.0089 72.1636 21.0161 71.1817 20.0098 72.1413C20.0094 72.1557 20.0091 72.1725 20.009 72.1749C20.009 72.1759 20.009 72.1774 20.009 72.1779C20.009 72.1788 20.009 72.1795 20.009 72.1797C20.009 72.1802 20.009 72.1805 20.009 72.1806C20.009 72.1808 20.009 72.1809 20.009 72.181C20.009 72.1814 20.009 72.182 20.009 72.1824C20.009 72.1835 20.009 72.1855 20.009 72.1886L22.009 72.189ZM71.2162 28.4131H63.6868V30.4131H71.2162V28.4131ZM64.6868 29.4131V26.2788H62.6868V29.4131H64.6868ZM63.6868 27.2788H71.2162V25.2788H63.6868V27.2788ZM70.2162 26.2788V29.4131H72.2162V26.2788H70.2162ZM21.0109 16.0121H75.1837V14.0121H21.0109V16.0121ZM74.1837 15.0121V22.7426H76.1837V15.0121H74.1837ZM75.1837 21.7426H21.0109V23.7426H75.1837V21.7426ZM22.0109 22.7426V15.0121H20.0109V22.7426H22.0109ZM20.3819 38.5327L30.8384 46.9943L32.0965 45.4395L21.64 36.978L20.3819 38.5327ZM30.4675 46.2169V50.6006H32.4675V46.2169H30.4675ZM32.0965 49.8232L21.64 41.3617L20.3819 42.9164L30.8384 51.378L32.0965 49.8232ZM22.0109 42.139V37.7553H20.0109V42.139H22.0109ZM3.54319 4.534H17.446V2.534H3.54319V4.534ZM16.446 3.534V72.1896H18.446V3.534H16.446ZM17.4461 71.1896C14.7307 71.1895 12.6137 71.1893 10.4947 71.1892C8.37553 71.1891 6.25871 71.1889 3.54325 71.1888L3.54313 73.1888C6.25853 73.1889 8.37547 73.1891 10.4945 73.1892C12.6137 73.1893 14.7305 73.1895 17.4459 73.1896L17.4461 71.1896ZM4.54319 72.1888V3.534H2.54319V72.1888H4.54319Z" fill="#3587E6" mask="url(#path-1-outside-1_1540_112)"/>
</svg>
