<svg width="78" height="78" viewBox="0 0 78 78" fill="none" xmlns="http://www.w3.org/2000/svg">
<path d="M14.4829 68.3H6.65H6.15V68.8V72.5666V73.0666H6.65H21.7167H22.2167V72.5666V57.5V57H21.7167H17.95H17.45V57.5V64.7679L15.107 62.4249C15.1061 62.424 15.1053 62.4232 15.1044 62.4223C8.78881 55.9197 5.26666 47.569 5.26666 38.6667C5.26666 29.762 8.7904 21.4134 15.1019 15.1019C21.4134 8.7904 29.7619 5.26667 38.6666 5.26667H39.1666V4.76667V1V0.5H38.6666C28.5556 0.5 18.8224 4.50541 11.7581 11.7581C4.50541 18.8224 0.5 28.5556 0.5 38.6667C0.5 48.7788 4.50631 58.513 11.7605 65.5776C11.7613 65.5784 11.7621 65.5791 11.7629 65.5799L14.4829 68.3Z" fill="#3587E6" stroke="#3587E6"/>
<path d="M65.7817 11.5889L65.7684 11.5741L65.754 11.5604L63.0865 9.03339H70.6834H71.1834V8.53339V4.76672V4.26672H70.6834H55.6167H55.1167V4.76672V19.8334V20.3334H55.6167H59.3834H59.8834V19.8334V12.5655L62.2315 14.9136C64.6403 17.3224 66.4968 19.919 68.1737 22.8995C70.7677 27.7186 72.0667 33.0968 72.0667 38.6667C72.0667 46.464 69.4685 53.8818 64.4629 59.8143L64.4628 59.8142L64.4546 59.8244C63.7209 60.7415 62.9863 61.4767 62.2315 62.2315C55.92 68.543 47.5715 72.0667 38.6667 72.0667H38.1667V72.5667V76.3334V76.8334H38.6667C48.7778 76.8334 58.511 72.828 65.5754 65.5753C72.828 58.5109 76.8334 48.7777 76.8334 38.6667C76.8334 31.0315 74.5425 23.7826 70.5402 17.4933C69.1995 15.3865 67.4813 13.4773 65.7963 11.6051L65.7817 11.5889Z" fill="#ADD7FF" stroke="#ADD7FF"/>
<path d="M40.55 63.15V47.895C42.9984 50.3433 46.2 51.85 49.9667 51.85C57.3117 51.85 63.15 46.0116 63.15 38.6666V36.7833H47.895C50.3434 34.335 51.85 31.1333 51.85 27.3666C51.85 20.0216 46.0117 14.1833 38.6667 14.1833H36.7834V29.4383C34.335 26.99 31.1334 25.4833 27.3667 25.4833C20.0217 25.4833 14.1833 31.3216 14.1833 38.6666V40.55H29.4384C26.99 42.9983 25.4834 46.2 25.4834 49.9666C25.4834 57.3116 31.3217 63.15 38.6667 63.15H40.55ZM59.195 40.55C58.2534 44.8816 54.4867 48.0833 49.9667 48.0833C47.1417 48.0833 44.6934 46.765 42.9984 44.8816C44.505 43.94 45.635 42.245 46.0117 40.55H59.195ZM40.55 18.1383C44.8817 19.08 48.0834 22.8466 48.0834 27.3666C48.0834 30.1916 46.765 32.64 44.8817 34.335C43.94 32.8283 42.245 31.6983 40.55 31.3216V18.1383ZM38.6667 34.9C40.7384 34.9 42.4334 36.595 42.4334 38.6666C42.4334 40.7383 40.7384 42.4333 38.6667 42.4333C36.595 42.4333 34.9 40.7383 34.9 38.6666C34.9 36.595 36.595 34.9 38.6667 34.9ZM18.1384 36.7833C19.08 32.4516 22.8467 29.25 27.3667 29.25C30.1917 29.25 32.64 30.5683 34.335 32.4516C32.8284 33.3933 31.6984 35.0883 31.3217 36.7833H18.1384ZM36.7834 59.195C32.4517 58.2533 29.25 54.4866 29.25 49.9666C29.25 47.1416 30.5684 44.6933 32.4517 42.9983C33.3934 44.505 35.0884 45.635 36.7834 46.0116V59.195Z" fill="#3587E6"/>
</svg>
